<svg xmlns="http://www.w3.org/2000/svg" viewBox="0 0 32 32">
  <g>
    <path d="M12.3037,7.58a7.4764,7.4764,0,0,1-.5149-1.257,12.16,12.16,0,0,1-.1272-1.6169,32.22,32.22,0,0,1,2.9088,1.84" fill="none" stroke="#fff" stroke-width="0.75"/>
    <path d="M21.2945,7.1656a7.2037,7.2037,0,0,1,2.4849-1.86,6.8826,6.8826,0,0,1-.5321,2.6442" fill="none" stroke="#fff" stroke-width="0.75"/>
    <path d="M25.2277,7.2366a12.7078,12.7078,0,0,0-3.9723,1.3078,5.8975,5.8975,0,0,1,.308-1.9193c.17-.3213.3124-.8569-.3437-.8569a4.7063,4.7063,0,0,0-1.7452.67,15.4891,15.4891,0,0,1,.4866-4.6463,17.7113,17.7113,0,0,0-2.2183,1.8344A3.2074,3.2074,0,0,0,16.5244,5.96c-.1384-.1428-1.763-2.7761-1.763-2.7761a13.5608,13.5608,0,0,0-.4151,2.7984A13.7593,13.7593,0,0,0,14.5337,8.21,29.8882,29.8882,0,0,0,9.642,6.6921,29.7784,29.7784,0,0,0,3.2238,6.25c0,.7231-.04,1.4462,1.7674,4.1018S8.361,13.36,8.9546,13.36a1.8467,1.8467,0,0,0,1.12-.5445,6.4481,6.4481,0,0,0-.0491,1.1382,3.3238,3.3238,0,0,0,1.2229,2.1334c.5044.5668,2.1781,1.9593,2.1781,1.9593a5.7625,5.7625,0,0,0-3.1867-.96A3.1871,3.1871,0,0,0,6.9194,20.1a2.4114,2.4114,0,0,0,2.3789,2.6377,2.1662,2.1662,0,0,0,2.2807-1.9281,2.3068,2.3068,0,0,0-.9462-1.5889,2.2784,2.2784,0,0,1,.8346-.3392,12.0071,12.0071,0,0,1,1.9237.1473c.2142.0669.0535,1.3211-.0669,1.6558a4.8239,4.8239,0,0,1-1.5577,1.8077,1.5721,1.5721,0,0,0-.8748.857c-.0714.1963-.2723.8123-.5312,1.4058a2.8948,2.8948,0,0,1-1.147,1.1828c-.2187.1072-.3794-.1517-.3794-.1517a1.4419,1.4419,0,0,0,.46-1.71c-.116-.2633-.7052-.482-1.1426-.482a4.7575,4.7575,0,0,0-1.3479.2143,6.5491,6.5491,0,0,0-2.486,1.6781,3.3958,3.3958,0,0,0-.3883,2.678,1.6058,1.6058,0,0,0,1.4014.71,2.118,2.118,0,0,0,1.4015-.2991,2.9692,2.9692,0,0,0,.9641-1.0131,4.8121,4.8121,0,0,0,2.4414,1.1738,5.5546,5.5546,0,0,0,2.5842-1.0756c.1964-.1518.1741-.8258.3437-.9909a6.524,6.524,0,0,1,3.1243-.5044c1.8969,0,2.9011.616,3.2135,1.0713a1.5889,1.5889,0,0,1,.3393,1.147,6.7422,6.7422,0,0,0-.2634,1.4952c0,.9061.5981.96,1.33.9819a7.5,7.5,0,0,0,2.8475-.9908,3.7169,3.7169,0,0,0,1.8657-2.4638,1.9658,1.9658,0,0,0-2.0085-1.6513,2.9021,2.9021,0,0,0-1.9549.7676,5.8284,5.8284,0,0,0-1.3568-2.2316,2.763,2.763,0,0,0-1.531-.5,3.2122,3.2122,0,0,0,.5133-2.2138,5.6025,5.6025,0,0,0,3.4591,1.16,2.24,2.24,0,0,0,2.3521-2.4458,2.1874,2.1874,0,0,0-2.2807-2.2986,1.7133,1.7133,0,0,0-1.647,1.397c0,.3749.0179,1.1649.0179,1.1649a12.5358,12.5358,0,0,0-2.2495-1.9237c2.8431-.79,4.6016-2.9412,4.6016-3.5527a3.0206,3.0206,0,0,0-.1428-.9864,2.5605,2.5605,0,0,0,2.0264-.6695,10.86,10.86,0,0,0,2.6869-3.1377,24.1463,24.1463,0,0,0,1.8031-3.3876A21.2165,21.2165,0,0,0,25.2277,7.2366ZM13.0842,11.6251a2.52,2.52,0,0,1,1.175-1.5365,2.5629,2.5629,0,0,1,2.3432-.02,4.26,4.26,0,0,1,1.8612,3.5752s-.1941.4084-1.5666.3648A7.0036,7.0036,0,0,1,12.91,12.84,3.1767,3.1767,0,0,1,13.0842,11.6251Zm5.54,5.3671a19.1327,19.1327,0,0,1-2.6571-.21l-1.2677,1.3066-.7319-1.779a3.1319,3.1319,0,0,1-1.2739-.7269l-.0987-.1172.0117-.1523A2.1677,2.1677,0,0,1,13.002,14.4l.6093.4365a2.2653,2.2653,0,0,0-.209.3711,6.2434,6.2434,0,0,0,2.6436.8291c2.918.415,5.0332.1758,5.959-.6807l.51.5508A5.6757,5.6757,0,0,1,18.624,16.9922Zm3.2652-3.1544c-.5289,0-1.0511-.0491-1.214-.2611a3.4248,3.4248,0,0,1-.2656-1.5711,1.7921,1.7921,0,0,1,.4664-1.3367c.2768-.3214.8034-.0893,1.1515.357s.87.6963.8816,2.7315A7.15,7.15,0,0,1,21.8892,13.8378Z" fill="#fff" stroke="#fff" stroke-width="0.5"/>
    <path d="M15.5346,10.6711a1.1565,1.1565,0,0,0-1.021,1.2553,1.1565,1.1565,0,0,0,1.021,1.2553,1.1565,1.1565,0,0,0,1.021-1.2553A1.1565,1.1565,0,0,0,15.5346,10.6711Zm.2042,1.2988a.515.515,0,1,1,.4352-.5088A.4764.4764,0,0,1,15.7388,11.97Z" fill="#fff"/>
    <path d="M21.4161,11.2234c-.4208,0-.7619.4886-.7619,1.0913s.3411,1.0914.7619,1.0914.7618-.4886.7618-1.0914S21.8368,11.2234,21.4161,11.2234Zm.2055,1.01a.3809.3809,0,1,1,.381-.3809A.381.381,0,0,1,21.6216,12.2331Z" fill="#fff"/>
  </g>
</svg>
